<?xml version="1.0" encoding="UTF-8"?>
<svg xmlns="http://www.w3.org/2000/svg" version="1.1" viewBox="0 0 411.45 51.12">
  <defs>
    <style>
      .cls-1 {
        fill: #00a63c;
      }

      .cls-2 {
        fill: #231815;
      }

      .cls-3 {
        fill: #005bab;
      }

      .cls-4 {
        fill: #ef834a;
      }

      .cls-5 {
        fill: #69bc82;
      }

      .cls-6 {
        fill: #00a73c;
      }

      .cls-7 {
        fill: #004298;
      }

      .cls-8 {
        fill: gray;
      }

      .cls-9 {
        fill: #e50012;
      }
    </style>
  </defs>
  <!-- Generator: Adobe Illustrator 28.7.7, SVG Export Plug-In . SVG Version: 1.2.0 Build 194)  -->
  <g>
    <g id="_레이어_1" data-name="레이어_1">
      <g>
        <g id="_레이어_1-2" data-name="_레이어_1">
          <g>
            <g>
              <path class="cls-3" d="M25.19,35.35c4.51,1.06,7.42,2.75,7.42,4.64,0,3.22-8.45,5.83-18.87,5.83-4.37,0-8.4-.46-11.59-1.23,3.29,2.02,9.73,3.39,17.13,3.39,10.75,0,19.46-2.9,19.46-6.47,0-2.88-5.7-5.33-13.56-6.17h0Z"/>
              <g>
                <path class="cls-6" d="M20.16,3.14C9.45,3.14.77,12.07.77,23.08s8.68,19.94,19.39,19.94c.68,0,1.35-.03,2.01-.1h.02s-3.8.26-4.4-2.33c-.69-2.99,2.95-4.71,5.7-5.47,1.72-.47,4.06-.46,6.85-.94,3.85-.59,7.04-3.17,8.61-6.66l-.22.04-.37-.17-.25-.05c-.25.17-.43.35-.93.38-.47.29-.95-.75-1.61-.67-.21-.13-.7.29-.97.22-.64.13-.47-.42-.92-.61-.76.09-.41-.28-.91-.44l-.27-.06c-.44-.22-1.01-.37-1.17-.71-.24-.2-.39-.17-.64-.38-.3-.06-.47-.07-.62-.08-.21,0,.07-.33-.27-.46-.02-.37-.8-.41-.86-.75-.5-.17-.67-.2-1-.4-.16.02-.44.11-.71.21-.32.12-.49.52-.6.58-.49.45-1.03.63-1.4,1.04-.24.26-.45.52-.66.77-.24.28-.55.35-.79.62-.29.35-.42.51-.75.83-.11.08-.32.56-.47.64-.17.09-.35.16-.5.17,0-.06-.02-.12-.04-.18-.14.02-.3.06-.54.13-.51.31-.65.59-1.26.85-.4.09-1.18.17-1.68.17-.31.17-.78-.15-1.21-.12-.14-.1-.31.26-.48.21-.41.06-.44-.56-.73-.68-.49.06-.64-.15-.96-.25l-.17-.04c-.29-.13-.65-.24-.74-.45-.16-.13-.43.1-.59-.04-.48-.1-.39-.31-.75-.44-.01-.23-.51-.26-.55-.48-.32-.11-.16-.35-.37-.48-.22.03-.26.15-.39.22-.65.32-.6.51-.89.83-.31.35-.95.81-1.33,1.2-.14.11-.29.32-.47.33-.02-.21-.05-.22-.14-.42-.24-.08-.37.38-.4.25-.01-.12-.05-.43.09-.56-.06-.03-.02-.06.02-.09-.11-.12.47-.31.06-.35-.06-.13-.24-.13-.19-.26.45-.12-.35-.22.08-.38-.14-.21.22-.17.08-.38.69-.39.91-1.54,1.46-1.96.02-.21.45-.33.64-.54.01-.15.12-.31.45-.37.15-.29.64-.53.8-.81.52-.22.76-.59,1.4-.76.12-.04.32-.06.41.02.54,0,.9.33,1.41.34l-.1.12c.29.13.65.29,1.1.24-.08.04-.29.06-.28.14.09.09.32.12.5.08.11.08.37.13.32.25-.06-.04-.16-.04-.26-.03-.07.03-.07.06-.06.08.12.08.34.08.45.17.19.06-.07.14-.01.23.36.16-.18.03-.25.15-.11-.08.04-.15-.03-.22-.09-.08-.28-.02-.42-.04-.07.14-.07.28.14.38-.02.16.36.13.49.24.07.13.31.24.44.34.04-.02.06-.04.12-.04.19,0,.18.12.23.19.06.04.14.04.22.02,0,.07.03.15.19.17l-.19.08c-.05.06.06.12.15.17.16-.02.1-.09.22-.13.11-.03.07.04.17.06.17-.06.12.08.3.03.12-.09-.12-.17-.17-.25v-.05c.12.02.04.1.18.12.04-.01.11,0,.14-.03,0-.03-.02-.06-.08-.08.11-.03.15.05.23.04.26.08.34.26.64.28.12-.07-.11-.13-.1-.22.33.21.71.41,1.12.6.08-.1.11-.18-.22-.21-.09-.2-.09-.39,0-.6.7-.19-.16-.55.52-.79-.22-.33.62-.47.41-.8,1.07-.61,1.5-1.27,2.36-1.92.02-.33.7-.52,1-.85.01-.24.18-.49.7-.58.23-.45,1-.83,1.25-1.28.82-.35,1.18-.92,2.19-1.18.19-.06.83-.37.98-.26.84.01,1.07.79,1.86.81l-.16.19c.44.22,1.02.46,1.72.38-.12.06-.45.09-.44.22.15.14.5.19.79.12.17.13.57.21.51.4-.09-.07-.25-.06-.4-.04-.11.04-.12.08-.09.13.19.13.52.13.71.26.3.1-.11.22-.02.36.56.25-.28.05-.39.24-.17-.12.06-.23-.04-.35-.15-.13-.44-.03-.67-.06-.11.22-.12.44.22.6-.04.25.55.2.77.37.11.21.44.22.63.37.06-.03.1-.08.19-.08.28,0,.28.17.36.27.09.05.22.06.35,0,0,.11.05.24.29.25l-.29.13c-.07.11.09.19.23.26.24-.04.16-.15.34-.23.17-.05.12.06.27.08.27-.12.19.11.46.01.18-.15-.18-.25-.27-.38v-.08c.19.02.06.15.27.17.06-.02.17,0,.21-.05,0-.05-.03-.1-.12-.12.17-.04.22.07.36.05.41.1.52.38.98.39.18-.12-.17-.2-.15-.35.18.11.67.07,1.02.21,0,0,.02.21.12.28l.14.03.05-.04c-.45-10.6-8.95-19.06-19.37-19.06h0ZM23.58,18.28c.12.19-.04.44-.16.54-.52,1.35-1.58,2.33-3.03,2.6-1.17-.09-2.74.13-3.51-1.13-.16-.58-.36-1.2-.5-1.81-.07-1.4.64-2.83,1.45-3.92,1.4-.99,3.18-.49,4.72.4.26-.15.63-.04.85.17-.01.31.17.75.42.88.32.73.26,1.59-.24,2.26h-.01Z"/>
                <path class="cls-1" d="M8.48,28.22h0c.12-.04.06-.03,0,0Z"/>
              </g>
            </g>
            <g>
              <g>
                <path class="cls-8" d="M50.47,45.29v-8.95h3c.68,0,1.2.04,1.55.13.5.12.92.33,1.28.64.46.4.8.91,1.03,1.53s.34,1.33.34,2.13c0,.68-.07,1.28-.23,1.81s-.36.96-.59,1.3c-.24.35-.5.62-.79.81s-.64.35-1.04.45c-.41.1-.87.15-1.4.15h-3.15ZM51.62,44.23h1.86c.57,0,1.03-.05,1.35-.17.33-.11.59-.26.79-.46.27-.28.49-.66.64-1.13s.23-1.04.23-1.72c0-.94-.15-1.65-.45-2.15-.3-.5-.66-.84-1.09-1.01-.31-.12-.81-.19-1.5-.19h-1.83v6.83h0Z"/>
                <path class="cls-8" d="M58.07,45.29l3.34-8.95h1.26l3.53,8.95h-1.31l-1-2.7h-3.68l-.93,2.7h-1.22ZM60.56,41.62h2.97l-.9-2.49c-.29-.75-.49-1.37-.63-1.87-.12.59-.28,1.17-.48,1.73l-.95,2.63h0Z"/>
                <path class="cls-8" d="M66.9,45.29v-8.95h6.27v1.06h-5.12v2.72h4.79v1.06h-4.79v3.04h5.32v1.06h-6.46Z"/>
                <path class="cls-8" d="M78.8,41.78v-1.06h3.68v3.31c-.57.46-1.15.81-1.75,1.04-.6.23-1.22.35-1.85.35-.85,0-1.63-.19-2.33-.56s-1.22-.92-1.58-1.63c-.36-.71-.54-1.51-.54-2.38s.17-1.69.53-2.44c.36-.76.86-1.31,1.53-1.68.67-.37,1.43-.55,2.29-.55.63,0,1.2.1,1.71.31s.9.51,1.2.88c.29.38.5.87.66,1.47l-1.06.29c-.13-.46-.29-.81-.49-1.08s-.47-.47-.83-.63-.75-.24-1.19-.24c-.52,0-.98.08-1.36.25-.38.17-.69.38-.92.65-.24.27-.42.56-.55.88-.22.55-.33,1.15-.33,1.8,0,.79.13,1.47.4,2,.27.54.65.94,1.16,1.2.51.26,1.05.39,1.62.39.5,0,.98-.1,1.45-.29s.83-.4,1.08-.63v-1.66h-2.53Z"/>
                <path class="cls-8" d="M89.66,36.33h1.15v5.17c0,.9-.1,1.62-.3,2.14-.2.53-.55.96-1.07,1.29-.52.33-1.19.5-2.03.5s-1.48-.15-2-.43c-.52-.29-.89-.71-1.11-1.26-.22-.54-.33-1.29-.33-2.24v-5.17h1.15v5.17c0,.78.07,1.35.21,1.72.14.37.38.65.72.85.34.2.76.3,1.25.3.85,0,1.45-.2,1.81-.59.36-.4.54-1.15.54-2.28v-5.17h.01Z"/>
                <path class="cls-8" d="M101.82,42.13l1.15.29c-.24.97-.67,1.72-1.3,2.23s-1.4.77-2.3.77-1.7-.2-2.29-.59-1.03-.96-1.34-1.7-.46-1.54-.46-2.4c0-.93.17-1.74.52-2.44.34-.69.84-1.22,1.48-1.58.64-.36,1.34-.54,2.11-.54.87,0,1.6.23,2.19.69s1,1.1,1.24,1.92l-1.13.28c-.2-.65-.49-1.12-.88-1.42-.39-.29-.87-.44-1.45-.44-.67,0-1.23.17-1.68.49-.45.33-.77.77-.95,1.33-.18.55-.27,1.13-.27,1.71,0,.76.11,1.42.32,1.99s.55.99,1.01,1.27c.45.28.95.42,1.48.42.65,0,1.19-.19,1.64-.57s.75-.95.91-1.7h0Z"/>
                <path class="cls-8" d="M104.34,45.29v-8.95h1.15v8.95h-1.15Z"/>
                <path class="cls-8" d="M109.5,45.29v-7.89h-2.86v-1.06h6.87v1.06h-2.86v7.89h-1.15Z"/>
                <path class="cls-8" d="M116.91,45.29v-3.79l-3.35-5.16h1.38l1.72,2.72c.31.51.6,1.01.89,1.51.27-.47.59-1.01.97-1.58l1.68-2.64h1.34l-3.47,5.16v3.79h-1.15Z"/>
                <path class="cls-8" d="M125.23,45.29v-8.95h3c.68,0,1.2.04,1.55.13.5.12.92.33,1.28.64.46.4.8.91,1.03,1.53.23.62.34,1.33.34,2.13,0,.68-.07,1.28-.23,1.81s-.36.96-.59,1.3c-.24.35-.5.62-.79.81s-.64.35-1.04.45c-.41.1-.87.15-1.4.15h-3.15ZM126.38,44.23h1.86c.57,0,1.03-.05,1.35-.17.33-.11.59-.26.79-.46.27-.28.49-.66.64-1.13s.23-1.04.23-1.72c0-.94-.15-1.65-.45-2.15-.3-.5-.66-.84-1.09-1.01-.31-.12-.81-.19-1.5-.19h-1.83v6.83h0Z"/>
                <path class="cls-8" d="M132.83,45.29l3.34-8.95h1.27l3.53,8.95h-1.31l-1-2.7h-3.68l-.93,2.7h-1.22ZM135.33,41.62h2.97l-.9-2.49c-.29-.75-.49-1.37-.63-1.87-.12.59-.28,1.17-.49,1.73l-.95,2.63Z"/>
                <path class="cls-8" d="M141.59,45.29v-8.95h1.15v7.89h4.29v1.06h-5.43Z"/>
                <path class="cls-8" d="M147.78,42.4l1.09-.1c.05.45.17.81.36,1.1.19.29.47.52.87.7s.83.26,1.32.26c.44,0,.82-.06,1.15-.2s.58-.32.74-.55c.16-.24.24-.49.24-.76s-.08-.53-.24-.73c-.16-.21-.42-.38-.77-.53-.23-.1-.74-.24-1.53-.44s-1.35-.38-1.66-.56c-.41-.22-.72-.5-.93-.83s-.31-.71-.31-1.12c0-.46.12-.88.37-1.27.25-.39.61-.69,1.08-.9.47-.21,1-.31,1.58-.31.64,0,1.2.11,1.7.32.49.21.87.53,1.13.94.26.42.41.88.42,1.4l-1.11.08c-.06-.56-.26-.97-.6-1.26-.34-.28-.84-.42-1.5-.42s-1.19.13-1.5.39-.47.58-.47.95c0,.32.11.58.34.79.22.21.79.42,1.71.63s1.56.41,1.91.57c.5.24.88.54,1.12.91.24.37.36.79.36,1.27s-.13.92-.39,1.35c-.26.42-.64.75-1.13.98-.49.23-1.05.35-1.66.35-.78,0-1.43-.12-1.96-.35-.53-.24-.94-.59-1.25-1.06-.3-.47-.46-1.01-.47-1.61h0Z"/>
                <path class="cls-8" d="M156.05,45.29v-8.95h6.27v1.06h-5.12v2.72h4.79v1.06h-4.79v3.04h5.32v1.06h-6.47,0Z"/>
                <path class="cls-8" d="M163.5,40.92c0-1.49.39-2.65,1.17-3.49.78-.84,1.78-1.26,3.01-1.26.8,0,1.53.2,2.18.59.65.4,1.14.94,1.48,1.65s.51,1.51.51,2.4-.18,1.72-.54,2.44c-.36.72-.86,1.26-1.51,1.63-.65.37-1.36.55-2.12.55-.82,0-1.55-.21-2.2-.61s-1.13-.96-1.47-1.67c-.33-.71-.5-1.45-.5-2.23h0ZM164.69,40.94c0,1.08.28,1.92.85,2.54.57.62,1.27.93,2.13.93s1.58-.31,2.14-.94.84-1.51.84-2.66c0-.72-.12-1.36-.36-1.9-.24-.54-.59-.96-1.05-1.26-.46-.29-.98-.45-1.56-.45-.82,0-1.52.29-2.11.86-.59.58-.89,1.53-.89,2.88h0Z"/>
                <path class="cls-8" d="M173.08,45.29v-8.95h1.19l4.57,7.03v-7.03h1.11v8.95h-1.19l-4.57-7.03v7.03h-1.11Z"/>
                <path class="cls-8" d="M185.68,41.78v-1.06h3.68v3.31c-.57.46-1.15.81-1.75,1.04-.6.23-1.22.35-1.85.35-.85,0-1.63-.19-2.33-.56s-1.23-.92-1.58-1.63-.54-1.51-.54-2.38.17-1.69.53-2.44.86-1.31,1.53-1.68,1.43-.55,2.29-.55c.63,0,1.2.1,1.71.31.5.21.9.51,1.2.88.29.38.51.87.66,1.47l-1.06.29c-.13-.46-.29-.81-.49-1.08s-.47-.47-.83-.63-.75-.24-1.2-.24c-.52,0-.98.08-1.36.25s-.69.38-.92.65c-.24.27-.42.56-.55.88-.22.55-.33,1.15-.33,1.8,0,.79.13,1.47.4,2,.27.54.65.94,1.16,1.2s1.05.39,1.62.39c.5,0,.98-.1,1.45-.29.47-.2.83-.4,1.07-.63v-1.66h-2.53.01Z"/>
                <path class="cls-8" d="M198.03,41.78v-1.06h3.68v3.31c-.57.46-1.15.81-1.75,1.04-.6.23-1.22.35-1.85.35-.85,0-1.63-.19-2.33-.56s-1.22-.92-1.58-1.63c-.36-.71-.54-1.51-.54-2.38s.17-1.69.53-2.44c.36-.76.86-1.31,1.53-1.68s1.43-.55,2.29-.55c.63,0,1.2.1,1.71.31.51.21.9.51,1.2.88.29.38.5.87.66,1.47l-1.06.29c-.13-.46-.29-.81-.49-1.08s-.47-.47-.83-.63-.75-.24-1.19-.24c-.52,0-.98.08-1.36.25s-.69.38-.92.65c-.24.27-.42.56-.55.88-.22.55-.33,1.15-.33,1.8,0,.79.13,1.47.4,2,.27.54.65.94,1.16,1.2.51.26,1.05.39,1.62.39.5,0,.98-.1,1.45-.29.47-.2.83-.4,1.08-.63v-1.66h-2.53Z"/>
                <path class="cls-8" d="M208.9,36.33h1.15v5.17c0,.9-.1,1.62-.3,2.14-.2.53-.55.96-1.07,1.29-.52.33-1.19.5-2.03.5s-1.48-.15-2-.43c-.52-.29-.89-.71-1.11-1.26-.22-.54-.33-1.29-.33-2.24v-5.17h1.15v5.17c0,.78.07,1.35.21,1.72.14.37.38.65.72.85.34.2.76.3,1.25.3.85,0,1.45-.2,1.81-.59.36-.4.54-1.15.54-2.28v-5.17h.01Z"/>
                <path class="cls-8" d="M211.71,45.29v-8.95h1.19l4.57,7.03v-7.03h1.11v8.95h-1.19l-4.57-7.03v7.03h-1.11Z"/>
              </g>
              <g>
                <path d="M64.37,11.37v4.16h-1.75v-4.16h-2.85v11.2h-6.84v-8.04h5.4v-2.38h-8.26v11.27c.01,1.53,1.92,1.52,1.92,1.52h7.79v4.03h2.85v-11.02h1.75v11.02h2.87V11.37h-2.88Z"/>
                <path d="M87.15,19.48v-6.02c0-1.48-1.75-1.49-1.75-1.49h-14.47v2.32h13.39v5.19h-14.32v2.31h7.63v7.28h2.81v-7.28h7.86v-2.31h-1.17.01Z"/>
                <path d="M109.82,21.88h-1.62c1.02.83,1.65,1.97,1.65,3.23,0,2.55-2.58,4.61-5.77,4.61s-5.77-2.06-5.77-4.61,2.59-4.61,5.77-4.61c1.07,0,2.08.24,2.94.64v-1.3h-14.65v-2.29h2.96v-2.06h2.84v2.06h3.09v-2.72h-8.24v-2.36h9.31s1.75.01,1.75,1.49v3.57h2.95v-5.88h2.81v2.74h1.44v2.29h-1.45v5.2ZM106.74,25.12c0-1.35-1.2-2.44-2.67-2.44s-2.67,1.1-2.67,2.44,1.2,2.44,2.67,2.44,2.67-1.1,2.67-2.44Z"/>
                <path d="M119.67,12.02c-3.18,0-5.77,2.06-5.77,4.61s2.59,4.61,5.77,4.61,5.77-2.06,5.77-4.61-2.58-4.61-5.77-4.61ZM119.67,19.07c-1.47,0-2.67-1.1-2.67-2.44s1.2-2.44,2.67-2.44,2.67,1.1,2.67,2.44-1.19,2.44-2.67,2.44Z"/>
                <path d="M115.24,24.48h13.4v4.58h2.8v-5.4c.01-1.48-1.73-1.49-1.73-1.49h-14.46v2.32s-.01,0-.01,0Z"/>
                <polygon points="128.64 18.65 126.08 18.65 126.08 16.51 128.64 16.51 128.64 15.31 126.08 15.31 126.08 13.18 128.64 13.18 128.64 11.7 131.46 11.7 131.46 21.68 128.64 21.68 128.64 18.65"/>
                <path d="M175.1,14.17v-2.5h-2.82v6.31h-11.04v-3.21h8.34v-2.3h-11.14v6.34c-.04,1.48,1.71,1.49,1.71,1.49h12.12v.92h-11.61v2.19h11.61v.74h-11.59v3.46c0,1.46,1.75,1.44,1.75,1.44h12.67v-2.19h-11.59v-.85h11.58v-9.54h2.37v-2.3h-2.37.01Z"/>
                <g>
                  <path d="M219.33,26.33h-13.29v-3.96h-2.81v4.8c0,1.48,1.75,1.49,1.75,1.49h14.36v-2.33h0Z"/>
                  <path d="M218.97,17.71v-4.61c0-1.47-1.75-1.49-1.75-1.49h-14.74v2.31h13.67v3.79h-14.45v2.29h8.13v3.42h2.82v-3.42h7.32v-2.29h-1Z"/>
                </g>
                <g>
                  <rect x="149.09" y="11.66" width="2.8" height="17.4"/>
                  <path d="M141.89,12.11c-.14-.1-.31-.17-.49-.17-.22,0-.42.09-.57.24l-.19.28-5.63,8.6,2.17,1.94,4.16-6.45,4.23,6.45,2.17-1.94-5.57-8.49-.3-.46h0Z"/>
                </g>
                <g>
                  <path d="M195.91,22.25h1.4v-10.72h-2.82v2.54h-3.09v2.3h3.09v4.95c-.85-.4-1.84-.63-2.9-.63-3.18,0-5.76,2.06-5.76,4.6s2.58,4.6,5.76,4.6,5.76-2.06,5.76-4.6c0-1.17-.54-2.23-1.44-3.04h0ZM191.59,27.73c-1.47,0-2.66-1.09-2.66-2.44s1.19-2.44,2.66-2.44,2.66,1.09,2.66,2.44-1.19,2.44-2.66,2.44Z"/>
                  <path d="M186.44,11.56c-.14-.1-.3-.17-.49-.17-.22,0-.42.09-.57.24l-.19.28-5.08,6.97,1.91,1.58,3.91-5.19,4.22,5.28,1.94-1.65-5.38-6.9-.3-.46h0Z"/>
                </g>
              </g>
            </g>
          </g>
        </g>
        <g id="_레이어_1-3" data-name="_레이어_1">
          <g>
            <g>
              <g>
                <path class="cls-2" d="M331.99,25.82h8.17v-2.56h-6.59v-4.98h-3.02v6.14s-.03,1.42,1.45,1.42h0Z"/>
                <polygon class="cls-2" points="348.51 21.66 345.15 21.66 345.15 17.03 342.12 17.03 342.12 28.06 345.15 28.06 345.15 24.22 348.51 24.22 348.51 21.66"/>
              </g>
              <g>
                <path class="cls-2" d="M351.64,23.93h8.54v-2.56h-7.05v-4.65h-3.02v5.73s-.21,1.48,1.53,1.48Z"/>
                <path class="cls-2" d="M351.8,34.38h.87v.03h11.95v-2.56h-11.56v-3.24h11.83v-2.56h-16.82v2.56h1.95v4.12s0,1.65,1.76,1.65h0Z"/>
              </g>
            </g>
            <g>
              <rect class="cls-2" x="280.93" y="16.94" width="3.47" height="12.46"/>
              <path class="cls-2" d="M267.63,19.02v5.6s-.11,1.98,2.23,1.98h5.91c2.34,0,2.23-1.98,2.23-1.98v-7.4h-8.43c-2.34,0-1.94,1.81-1.94,1.81ZM274.64,23.75h-3.67v-3.71h3.67v3.71Z"/>
              <path class="cls-2" d="M253.32,28.99h-3.6v5.33s.04,1.68,2.36,1.68h13.06v-2.92h-11.83v-4.08h0Z"/>
              <path class="cls-2" d="M274.37,28.99h-3.6v5.33s.04,1.68,2.36,1.68h12.75v-2.92h-11.52v-4.08h0Z"/>
              <path class="cls-2" d="M263.83,18.75c0-1.99-1.86-1.82-1.86-1.82h-11.27v2.92h9.49v3.89h-13.7v2.92h8.68v4.42h3.23v-4.42h7.56v-2.92h-2.11s0-4.99,0-4.99Z"/>
              <rect class="cls-2" x="298.97" y="17.07" width="3.24" height="11.11"/>
              <path class="cls-2" d="M291.16,17.51c-2.64,0-4.79,2.28-4.79,5.08s2.15,5.08,4.79,5.08,4.79-2.28,4.79-5.08-2.15-5.08-4.79-5.08ZM291.16,24.82c-1.15,0-2.09-.99-2.09-2.22s.94-2.22,2.09-2.22,2.09.99,2.09,2.22-.94,2.22-2.09,2.22Z"/>
            </g>
            <g>
              <g>
                <path class="cls-9" d="M319.12,35.22l6.68,4.97,2.23-3.48-6.05-4.5h3.38v-3.39h-6.31v-2.84h-4.01v2.84h-5.47v3.39h4.85l-6.16,4.59,2.31,3.4,6.82-5.08s.92-.75,1.73.11Z"/>
                <path class="cls-9" d="M319.73,22.19v-8.23h-3.85v2.18h-4.99v-2.18h-3.85v7.93s-.26,2.49,2.2,2.49h8.2s2.31.44,2.31-2.19h0ZM315.87,19.29v1.85h-4.99v-1.85h4.99Z"/>
                <polygon class="cls-9" points="323.86 16.97 323.86 27.57 327.89 27.57 327.89 13.77 323.87 13.77 323.87 13.77 323.87 13.77 323.86 13.77 323.86 13.77 321.89 16.67 321.89 17.02 323.86 16.97"/>
              </g>
              <g>
                <path class="cls-4" d="M304.48,5.31c-.63.44-.81,1.34-.4,2.01l2.34,3.82c.41.67,1.26.86,1.89.42.63-.44.81-1.34.4-2.01l-2.34-3.82c-.41-.67-1.26-.86-1.89-.42Z"/>
                <path class="cls-4" d="M328.13,5.73l-2.34,3.82c-.41.67-.24,1.57.4,2.01.63.44,1.48.25,1.89-.42l2.34-3.82c.41-.67.24-1.57-.4-2.01-.63-.44-1.48-.25-1.89.42Z"/>
                <path class="cls-4" d="M315.98,2.8v5.18c0,.8.61,1.45,1.37,1.45s1.37-.65,1.37-1.45V2.8c0-.8-.61-1.45-1.37-1.45s-1.37.65-1.37,1.45Z"/>
              </g>
            </g>
            <g>
              <g>
                <g>
                  <path class="cls-7" d="M370.1,23.6h10.45v-3.09h-8.72v-2.54h7.56v-3.09l-9.47-.02c-1.67,0-1.59,1.52-1.59,1.52v5.48s-.28,1.74,1.76,1.74h0Z"/>
                  <polygon class="cls-7" points="387.02 16.27 387.02 14.52 383.44 14.52 383.44 23.66 387.02 23.66 387.02 19.35 390.38 19.35 390.38 16.27 387.02 16.27"/>
                  <path class="cls-7" d="M387.62,27.23v5.71h-13.63v1.9h15.42v3.09h-16.73c-2.11,0-1.93-1.83-1.93-1.83v-4.47s-.24-1.78,1.66-1.78h11.81v-1.59h-11.59v-3.09h13.38s1.83-.47,1.62,2.06h0Z"/>
                </g>
                <g>
                  <path class="cls-7" d="M397.06,16.48l1.34,1.44-.02.02,4.83,5.22-2.29,2.47-4.83-5.22-3.97,4.28-2.29-2.47,5.46-5.89s.82-.89,1.78.15h0Z"/>
                  <polygon class="cls-7" points="406.5 24.79 410.08 24.79 410.08 14.56 406.5 14.56 406.5 17.06 402 17.06 402 20.15 406.5 20.15 406.5 24.79"/>
                  <path class="cls-7" d="M404.93,25.52c-3.18,0-5.76,2.79-5.76,6.21s2.58,6.21,5.76,6.21,5.76-2.79,5.76-6.21-2.58-6.21-5.76-6.21ZM404.93,34.63c-1.48,0-2.68-1.3-2.68-2.89s1.2-2.89,2.68-2.89,2.68,1.3,2.68,2.89-1.21,2.89-2.68,2.89Z"/>
                </g>
              </g>
              <path class="cls-5" d="M400.25,5.54c-3.98,2.8-8.5,3.7-13.43,2.67-3.75-.79-6.34-2.44-6.36-2.47-.57-.37-1.32-.18-1.67.43-.35.6-.18,1.4.4,1.77.11.08,2.92,1.89,7.07,2.78,5.53,1.18,10.83.13,15.33-3.03.56-.4.71-1.19.34-1.79-.37-.6-1.12-.76-1.68-.36h0Z"/>
            </g>
          </g>
        </g>
      </g>
    </g>
  </g>
</svg>