<?xml version="1.0" encoding="UTF-8"?>
<svg xmlns="http://www.w3.org/2000/svg" version="1.1" viewBox="0 0 223.14 53.96">
  <defs>
    <style>
      .cls-1 {
        fill: #231815;
      }

      .cls-2 {
        fill: #ef834a;
      }

      .cls-3 {
        fill: #69bc82;
      }

      .cls-4 {
        fill: #004298;
      }

      .cls-5 {
        fill: #e50012;
      }
    </style>
  </defs>
  <!-- Generator: Adobe Illustrator 28.7.7, SVG Export Plug-In . SVG Version: 1.2.0 Build 194)  -->
  <g>
    <g id="_레이어_1" data-name="레이어_1">
      <g id="_레이어_1-2" data-name="_레이어_1">
        <g>
          <g>
            <g>
              <path class="cls-1" d="M116.18,33.8h11.04v-3.47h-8.9v-6.74h-4.09v8.3s-.04,1.92,1.96,1.92h-.01Z"/>
              <polygon class="cls-1" points="138.5 28.18 133.96 28.18 133.96 21.93 129.88 21.93 129.88 36.83 133.96 36.83 133.96 31.65 138.5 31.65 138.5 28.18"/>
            </g>
            <g>
              <path class="cls-1" d="M142.74,31.26h11.55v-3.47h-9.52v-6.28h-4.09v7.75s-.28,2,2.06,2Z"/>
              <path class="cls-1" d="M142.96,45.37h1.18v.04h16.16v-3.47h-15.63v-4.37h15.99v-3.47h-22.73v3.47h2.64v5.57s0,2.23,2.38,2.23h.01Z"/>
            </g>
          </g>
          <g>
            <rect class="cls-1" x="47.16" y="21.8" width="4.69" height="16.84"/>
            <path class="cls-1" d="M29.19,24.61v7.56s-.15,2.67,3.01,2.67h7.99c3.17,0,3.01-2.67,3.01-2.67v-10.01h-11.39c-3.17,0-2.62,2.45-2.62,2.45ZM38.67,31.01h-4.96v-5.01h4.96v5.01Z"/>
            <path class="cls-1" d="M9.85,38.09h-4.86v7.2s.05,2.27,3.19,2.27h17.65v-3.95h-15.99v-5.52h.01Z"/>
            <path class="cls-1" d="M38.3,38.09h-4.86v7.2s.05,2.27,3.19,2.27h17.23v-3.95h-15.57v-5.52h.01Z"/>
            <path class="cls-1" d="M24.05,24.25c0-2.69-2.52-2.47-2.52-2.47H6.3v3.95h12.82v5.26H.6v3.95h11.73v5.97h4.36v-5.97h10.21v-3.95h-2.86s0-6.75,0-6.75Z"/>
            <rect class="cls-1" x="71.55" y="21.98" width="4.37" height="15.02"/>
            <path class="cls-1" d="M61,22.58c-3.57,0-6.47,3.08-6.47,6.87s2.9,6.87,6.47,6.87,6.47-3.08,6.47-6.87-2.9-6.87-6.47-6.87ZM61,32.45c-1.56,0-2.83-1.34-2.83-3s1.27-3,2.83-3,2.83,1.34,2.83,3-1.27,3-2.83,3Z"/>
          </g>
          <g>
            <g>
              <path class="cls-5" d="M98.78,46.52l9.03,6.72,3.01-4.7-8.18-6.09h4.57v-4.58h-8.53v-3.84h-5.42v3.84h-7.4v4.58h6.56l-8.33,6.2,3.12,4.59,9.22-6.86s1.25-1.01,2.34.14Z"/>
              <path class="cls-5" d="M99.61,28.89v-11.12h-5.21v2.94h-6.75v-2.94h-5.21v10.72s-.35,3.36,2.97,3.36h11.08s3.12.6,3.12-2.96h0ZM94.4,24.98v2.51h-6.75v-2.51h6.75Z"/>
              <polygon class="cls-5" points="105.2 21.85 105.2 36.18 110.64 36.18 110.64 17.51 105.21 17.51 105.21 17.51 105.21 17.51 105.2 17.51 105.2 17.52 102.53 21.44 102.54 21.92 105.2 21.85"/>
            </g>
            <g>
              <path class="cls-2" d="M78.99,6.09c-.86.59-1.09,1.81-.54,2.71l3.17,5.16c.56.91,1.7,1.17,2.56.57.86-.59,1.09-1.81.54-2.71l-3.17-5.16c-.56-.91-1.7-1.17-2.56-.57Z"/>
              <path class="cls-2" d="M110.97,6.66l-3.17,5.16c-.56.91-.32,2.13.54,2.71.86.59,2,.34,2.56-.57l3.17-5.16c.56-.91.32-2.13-.54-2.71-.86-.59-2-.34-2.56.57Z"/>
              <path class="cls-2" d="M94.54,2.69v7c0,1.08.83,1.96,1.85,1.96s1.85-.88,1.85-1.96V2.69c0-1.08-.83-1.96-1.85-1.96s-1.85.88-1.85,1.96Z"/>
            </g>
          </g>
          <g>
            <g>
              <g>
                <path class="cls-4" d="M167.69,30.81h14.12v-4.18h-11.78v-3.44h10.22v-4.18l-12.79-.03c-2.26,0-2.15,2.05-2.15,2.05v7.41s-.38,2.35,2.37,2.35h0Z"/>
                <polygon class="cls-4" points="190.57 20.9 190.57 18.53 185.73 18.53 185.73 30.88 190.57 30.88 190.57 25.06 195.11 25.06 195.11 20.9 190.57 20.9"/>
                <path class="cls-4" d="M191.37,35.71v7.72h-18.43v2.57h20.84v4.18h-22.62c-2.85,0-2.61-2.48-2.61-2.48v-6.05s-.33-2.4,2.25-2.4h15.96v-2.15h-15.66v-4.18h18.09s2.48-.63,2.19,2.79h-.01Z"/>
              </g>
              <g>
                <path class="cls-4" d="M204.13,21.19l1.81,1.95-.02.02,6.53,7.06-3.1,3.34-6.53-7.06-5.37,5.79-3.1-3.34,7.38-7.97s1.11-1.2,2.4.2h-.01Z"/>
                <polygon class="cls-4" points="216.89 32.41 221.73 32.41 221.73 18.59 216.89 18.59 216.89 21.97 210.81 21.97 210.81 26.15 216.89 26.15 216.89 32.41"/>
                <path class="cls-4" d="M214.76,33.4c-4.29,0-7.78,3.77-7.78,8.4s3.49,8.4,7.78,8.4,7.78-3.77,7.78-8.4-3.49-8.4-7.78-8.4ZM214.76,45.71c-2,0-3.62-1.75-3.62-3.91s1.62-3.91,3.62-3.91,3.62,1.75,3.62,3.91-1.63,3.91-3.62,3.91Z"/>
              </g>
            </g>
            <path class="cls-3" d="M208.44,6.39c-5.39,3.79-11.49,5-18.15,3.61-5.07-1.06-8.56-3.3-8.59-3.33-.77-.51-1.78-.25-2.26.58-.47.82-.24,1.89.54,2.39.15.1,3.95,2.56,9.55,3.76,7.48,1.6,14.64.18,20.72-4.1.75-.54.96-1.61.46-2.41-.51-.8-1.52-1.02-2.27-.48h0Z"/>
          </g>
        </g>
      </g>
    </g>
  </g>
</svg>